<svg width="61" height="70" viewBox="0 0 61 70" fill="none" xmlns="http://www.w3.org/2000/svg">
<path d="M55.97 30.15C57.17 31.79 59.59 34.04 60.54 35.83C61.97 38.53 58.06 39.97 55.98 40.34C55.72 42.26 55.58 44.57 55.14 46.44C54.99 47.07 54.4 47.43 54.28 48.1C53.98 49.65 54.74 51.36 54.44 52.97C54.02 55.24 52.7 57.54 50.24 57.95C49.4 58.09 47.35 58.28 46.53 58.28C43 58.26 39.56 56.1 38.01 60.87C37.41 62.71 37.72 68.82 36.05 69.32C31.66 69.19 27.2 68.96 22.85 68.57C21.21 68.42 19.46 68.3 17.8 68.11C15.53 67.86 12.09 67.56 9.96999 67.1C8.58999 66.8 8.15 65.09 8.14 63.85C8.12 59.61 9.77 54.83 8.98 50.46C8.48 47.69 5.3 44.32 3.95 41.58C-0.950003 31.68 -0.790029 14.5 8.82997 7.43C11.67 5.35 15.66 3.33 19.22 3.46L18.44 20.19C16.55 22.91 13.58 23.91 12.01 27.01C7.02999 36.86 14.85 48.11 25.93 45.96C34.95 44.21 37.5 33.6 33.66 26.09C32.47 23.77 28.87 21.67 28.45 19.63C28.09 17.88 28.65 16.1 29.1 14.43C29.88 11.51 31.05 7.67 32.16 4.87C32.65 3.63 33.33 1.15 34.69 0.739997C35.65 0.449997 36.29 1.22 37.21 1.42C46.93 3.54 53.11 9.2 54.52 19.46C54.8 21.52 53.55 23.86 53.39 25.93L55.98 30.13L55.97 30.15Z" fill="#FAF2DF"/>
<path d="M16.48 25.01C21.33 20.81 29.04 22.02 31.77 27.99C37.23 39.91 22.32 49.72 14.67 39.39C11.79 35.5 12.77 28.22 16.48 25.01Z" fill="#FAF2DF"/>
<path d="M31.22 0.949997L25.38 19.57L21.73 19.41C20.91 15.73 21.52 11.82 21.76 8.05C21.91 5.75 21.33 3.5 22.45 1.33C25.26 0.390001 28.34 0.410002 31.22 0.940002V0.949997Z" fill="#FAF2DF"/>
</svg>
