<svg width="62" height="70" viewBox="0 0 62 70" fill="none" xmlns="http://www.w3.org/2000/svg">
<path d="M56.18 30.31C57.38 31.95 59.8 34.2 60.75 35.99C62.18 38.69 58.27 40.13 56.19 40.5C55.93 42.42 55.79 44.73 55.35 46.6C55.2 47.23 54.61 47.59 54.49 48.26C54.19 49.81 54.95 51.52 54.65 53.13C54.23 55.4 52.91 57.7 50.45 58.11C49.61 58.25 47.56 58.44 46.74 58.44C43.21 58.42 39.77 56.26 38.22 61.03C37.62 62.87 37.93 68.98 36.26 69.48C31.87 69.35 27.41 69.12 23.06 68.73C21.42 68.58 19.67 68.46 18.01 68.27C15.74 68.02 12.3 67.72 10.18 67.26C8.8 66.96 8.35998 65.25 8.34998 64.01C8.32998 59.77 9.98001 54.99 9.19001 50.62C8.69001 47.85 5.50998 44.48 4.15998 41.74C-0.740023 31.84 -0.580017 14.66 9.03998 7.59C11.88 5.51 15.87 3.49 19.43 3.62L18.65 20.35C16.76 23.07 13.79 24.07 12.22 27.17C7.23998 37.02 15.06 48.27 26.14 46.12C35.16 44.37 37.71 33.76 33.87 26.25C32.68 23.93 29.08 21.83 28.66 19.79C28.3 18.04 28.86 16.26 29.31 14.59C30.09 11.67 31.26 7.83 32.37 5.03C32.86 3.79 33.54 1.31 34.9 0.9C35.86 0.61 36.5 1.38001 37.42 1.58001C47.14 3.70001 53.32 9.36 54.73 19.62C55.01 21.68 53.76 24.02 53.6 26.09L56.19 30.29L56.18 30.31Z" fill="#304427"/>
<path d="M16.68 25.17C21.53 20.97 29.24 22.18 31.97 28.15C37.43 40.07 22.52 49.88 14.87 39.55C11.99 35.66 12.97 28.38 16.68 25.17Z" fill="#304427"/>
<path d="M31.42 1.11L25.58 19.73L21.93 19.57C21.11 15.89 21.72 11.98 21.96 8.21001C22.11 5.91001 21.53 3.66001 22.65 1.49001C25.46 0.550005 28.54 0.570006 31.42 1.10001V1.11Z" fill="#304427"/>
</svg>
