<svg width="61" height="83" viewBox="0 0 61 83" fill="none" xmlns="http://www.w3.org/2000/svg">
<path d="M40.75 81.72C39.73 82.72 37.14 82.87 35.83 82.21C33.81 81.2 34.66 77.65 34.71 75.86C34.82 71.94 35.09 68.05 35.25 64.14C34.87 62.91 29.98 59.58 28.75 58.4C28.05 57.73 25.58 54.29 25.04 54.29C24.13 54.28 23.22 56.46 22.88 57.25C21.79 59.73 21.31 62.35 19.91 64.81C18.09 68.01 9.98 78.65 7.38 81.14C5.61 82.84 3.76998 83.5 1.73998 81.65C0.0999843 80.16 0.130001 78.38 1.07 76.53C3.1 72.55 7.77998 67.77 10.33 63.72C13.71 58.36 14.55 49.7 16.48 43.73C18.01 39.01 21.89 34.14 23.51 29.37C23.51 29.01 17.84 30.54 17.38 30.72C15.98 31.26 12.29 36.7 11.32 38.24C10.17 40.07 9.17 44.71 5.82 43.65C5.36 43.5 4.17 42.5 3.97 42.09C3.28 40.65 4.33998 40.76 4.35998 40.67C4.55998 39.94 4.36 39.46 4.91 38.29C6.16 35.65 10.96 26.26 12.98 24.97C17.08 23.75 20.92 21.67 24.93 20.28C27.37 19.43 32.36 17.9 34.81 18.42C37.52 18.99 41.46 23.39 42.72 25.79C44.55 29.29 45.51 35.76 48.86 37.64C51.77 39.27 61.61 41.26 60.14 45.93C60.03 46.28 58.27 47.69 57.92 47.79C56.28 48.28 50.55 45.13 48.65 44.3C47.2 43.67 45.54 43.45 44.13 42.71C41.7 41.43 40.4 38.3 38.8 36.15C38.44 35.83 38.18 36.52 38.05 36.76C36.51 39.38 36.41 43.31 34.16 45.65C34.1 46.18 35.25 47.92 35.6 48.51C37.67 52.01 40.74 55.31 42.75 58.68C43.89 60.59 44.02 60.94 43.85 63.26C43.52 67.74 42.21 72.52 41.53 76.9C41.35 78.1 41.72 80.78 40.75 81.73V81.72Z" fill="#304427"/>
<path d="M38.7 0.750007C40.98 0.380007 44.08 1.58001 46.03 2.77001C53.63 7.42001 48.26 20.44 38.44 17.82C29.04 15.32 30.03 2.15001 38.71 0.750007H38.7Z" fill="#304427"/>
</svg>
