<svg width="60" height="82" viewBox="0 0 60 82" fill="none" xmlns="http://www.w3.org/2000/svg">
<path d="M40.3276 80.8885C39.3076 81.8885 36.7176 82.0384 35.4076 81.3784C33.3876 80.3684 34.2376 76.8185 34.2876 75.0285C34.3976 71.1085 34.6676 67.2185 34.8276 63.3085C34.4476 62.0785 29.5576 58.7484 28.3276 57.5684C27.6276 56.8984 25.1576 53.4584 24.6176 53.4584C23.7076 53.4484 22.7976 55.6285 22.4576 56.4185C21.3676 58.8985 20.8876 61.5185 19.4876 63.9785C17.6676 67.1785 9.55757 77.8185 6.95757 80.3085C5.18757 82.0085 3.34757 82.6685 1.31757 80.8185C-0.322431 79.3285 -0.292429 77.5485 0.647571 75.6985C2.67757 71.7185 7.35757 66.9385 9.90757 62.8885C13.2876 57.5285 14.1276 48.8684 16.0576 42.8984C17.5876 38.1784 21.4676 33.3085 23.0876 28.5385C23.0876 28.1785 17.4176 29.7085 16.9576 29.8885C15.5576 30.4285 11.8676 35.8685 10.8976 37.4085C9.74756 39.2385 8.74757 43.8784 5.39757 42.8184C4.93757 42.6684 3.74756 41.6684 3.54756 41.2584C2.85756 39.8184 3.91757 39.9285 3.93757 39.8385C4.13757 39.1085 3.93757 38.6284 4.48757 37.4584C5.73757 34.8184 10.5376 25.4285 12.5576 24.1385C16.6576 22.9185 20.4976 20.8385 24.5076 19.4485C26.9476 18.5985 31.9376 17.0685 34.3876 17.5885C37.0976 18.1585 41.0376 22.5585 42.2976 24.9585C44.1276 28.4585 45.0876 34.9285 48.4376 36.8085C51.3476 38.4385 61.1876 40.4284 59.7176 45.0984C59.6076 45.4484 57.8476 46.8584 57.4976 46.9584C55.8576 47.4484 50.1276 44.2985 48.2276 43.4685C46.7776 42.8385 45.1176 42.6184 43.7076 41.8784C41.2776 40.5984 39.9776 37.4684 38.3776 35.3184C38.0176 34.9984 37.7576 35.6884 37.6276 35.9284C36.0876 38.5484 35.9876 42.4784 33.7376 44.8184C33.6776 45.3484 34.8276 47.0884 35.1776 47.6784C37.2476 51.1784 40.3176 54.4784 42.3276 57.8484C43.4676 59.7584 43.5976 60.1084 43.4276 62.4284C43.0976 66.9084 41.7876 71.6885 41.1076 76.0685C40.9276 77.2685 41.2976 79.9485 40.3276 80.8985V80.8885Z" fill="#FAF2DF"/>
<path d="M38.2776 0.0682446C40.5576 -0.301755 43.6576 0.898249 45.6076 2.08825C53.2076 6.73825 47.8376 19.7583 38.0176 17.1383C28.6176 14.6383 29.6076 1.46824 38.2876 0.0682446H38.2776Z" fill="#FAF2DF"/>
</svg>
