<svg width="69" height="70" viewBox="0 0 69 70" fill="none" xmlns="http://www.w3.org/2000/svg">
<path d="M33.61 12.84C35.17 12.63 35.87 13.84 35.99 15.19C37.05 27.06 35.17 40.47 35.99 52.5C35.72 54.81 33.5 55.13 31.98 53.64L19.98 41.68C17.12 40.69 10.09 43.45 9.68997 39.13C9.44997 36.55 9.39997 30.52 9.68997 28.01C10.15 24.2 17.32 26.64 19.98 25.73L31.98 13.77C32.39 13.45 33.13 12.9 33.62 12.84H33.61Z" fill="#304427"/>
<path d="M50.76 16.54C52.54 16.16 53.92 18.02 54.96 19.35C61.33 27.59 61.33 39.82 54.96 48.06C53.86 49.49 51.72 52.22 49.83 50.37C47.86 48.45 50.96 46.18 52.05 44.59C56.53 38.03 56.57 29.58 52.17 22.99C51.47 21.94 49.42 19.96 49.24 19.05C49.02 17.96 49.66 16.77 50.77 16.54H50.76Z" fill="#304427"/>
<path d="M44.76 22.51C47.26 22 49.86 26.94 50.47 28.94C51.39 31.92 51.39 35.48 50.47 38.47C49.85 40.48 46.32 47.2 43.68 44.25C41.88 42.23 45.01 40.18 45.89 38.19C47.14 35.38 47.17 32.26 45.98 29.43C45.44 28.14 43.23 25.87 43.11 25.15C42.92 24.05 43.61 22.74 44.75 22.51H44.76Z" fill="#304427"/>
<path d="M37.69 39.83V27.59C44.15 28.85 44.21 38.59 37.69 39.83Z" fill="#304427"/>
<path d="M34.38 67.78C52.4508 67.78 67.1 53.1308 67.1 35.06C67.1 16.9892 52.4508 2.34 34.38 2.34C16.3092 2.34 1.65997 16.9892 1.65997 35.06C1.65997 53.1308 16.3092 67.78 34.38 67.78Z" stroke="#304427" stroke-width="3.31" stroke-miterlimit="10"/>
</svg>
